<svg width="500" height="300" viewBox="0 0 500 300" fill="none" xmlns="http://www.w3.org/2000/svg">
<rect width="500" height="300" rx="10" fill="white"/>
<g clip-path="url(#clip0_17_10)">
<mask id="mask0_17_10" style="mask-type:luminance" maskUnits="userSpaceOnUse" x="68" y="15" width="364" height="120">
<path d="M432 15H68V135H432V15Z" fill="white"/>
</mask>
<g mask="url(#mask0_17_10)">
<path d="M432 15H68V135H432V15Z" fill="white"/>
<path d="M107.312 60.28C103.088 60.344 99.344 61.432 96.08 63.544C92.88 65.592 90.608 68.44 89.264 72.088V103H80.816V52.888H88.688V64.504C90.416 61.048 92.688 58.264 95.504 56.152C98.384 53.976 101.392 52.76 104.528 52.504C105.168 52.504 105.712 52.504 106.16 52.504C106.608 52.504 106.992 52.536 107.312 52.6V60.28Z" fill="black"/>
<path d="M136.992 103.96C133.216 103.96 129.76 103.288 126.624 101.944C123.552 100.536 120.864 98.648 118.56 96.28C116.32 93.848 114.56 91.0641 113.28 87.9281C112.064 84.7921 111.456 81.464 111.456 77.944C111.456 73.208 112.544 68.8881 114.72 64.9841C116.896 61.0801 119.904 57.944 123.744 55.576C127.648 53.208 132.096 52.024 137.088 52.024C142.144 52.024 146.528 53.2401 150.24 55.6721C154.016 58.0401 156.928 61.1761 158.976 65.0801C161.088 68.9201 162.144 73.0801 162.144 77.5601C162.144 78.2001 162.112 78.8401 162.048 79.4801C162.048 80.0561 162.016 80.504 161.952 80.824H120.384C120.64 84.088 121.536 87 123.072 89.56C124.672 92.056 126.72 94.0401 129.216 95.5121C131.712 96.9201 134.4 97.6241 137.28 97.6241C140.352 97.6241 143.232 96.856 145.92 95.32C148.672 93.784 150.56 91.7681 151.584 89.2721L158.88 91.2881C157.792 93.7201 156.16 95.8961 153.984 97.8161C151.872 99.7361 149.344 101.24 146.4 102.328C143.52 103.416 140.384 103.96 136.992 103.96ZM120.096 74.968H154.272C154.016 71.704 153.088 68.824 151.488 66.328C149.888 63.832 147.84 61.88 145.344 60.472C142.848 59.064 140.096 58.3601 137.088 58.3601C134.144 58.3601 131.424 59.064 128.928 60.472C126.432 61.88 124.384 63.832 122.784 66.328C121.248 68.824 120.352 71.704 120.096 74.968Z" fill="black"/>
<path d="M185.216 103L165.536 52.8879H174.368L190.112 94.9359L205.856 52.8879H214.112L194.432 103H185.216Z" fill="black"/>
<path d="M222.816 103V52.888H231.264V103H222.816ZM222.816 43.48V32.92H231.264V43.48H222.816Z" fill="black"/>
<path d="M262 103.96C257.84 103.96 253.936 103.288 250.288 101.944C246.64 100.536 243.504 98.4561 240.88 95.7041L244.144 89.752C247.024 92.44 249.904 94.3601 252.784 95.5121C255.664 96.6641 258.608 97.24 261.616 97.24C265.072 97.24 267.888 96.6 270.064 95.32C272.24 93.976 273.328 92.024 273.328 89.464C273.328 87.608 272.752 86.232 271.6 85.336C270.512 84.44 268.944 83.704 266.896 83.128C264.848 82.488 262.416 81.784 259.6 81.016C256.144 79.992 253.232 78.904 250.864 77.752C248.496 76.6 246.704 75.16 245.488 73.432C244.272 71.704 243.664 69.528 243.664 66.904C243.664 63.704 244.496 61.016 246.16 58.84C247.824 56.6 250.096 54.904 252.976 53.752C255.92 52.6 259.248 52.024 262.96 52.024C266.672 52.024 270.032 52.6 273.04 53.752C276.048 54.904 278.64 56.6 280.816 58.84L276.976 64.696C274.992 62.648 272.816 61.144 270.448 60.184C268.08 59.16 265.424 58.648 262.48 58.648C260.752 58.648 259.056 58.872 257.392 59.32C255.728 59.704 254.352 60.44 253.264 61.528C252.176 62.552 251.632 64.024 251.632 65.944C251.632 67.544 252.048 68.8241 252.88 69.784C253.776 70.6801 255.056 71.4481 256.72 72.0881C258.448 72.7281 260.528 73.4321 262.96 74.2001C266.736 75.2881 270 76.3761 272.752 77.4641C275.568 78.5521 277.744 79.9601 279.28 81.6881C280.816 83.4161 281.584 85.8161 281.584 88.8881C281.584 93.6241 279.792 97.3361 276.208 100.024C272.624 102.648 267.888 103.96 262 103.96Z" fill="black"/>
<path d="M286.88 88.504C286.88 85.304 287.776 82.5521 289.568 80.2481C291.424 77.8801 293.952 76.0561 297.152 74.7761C300.352 73.4961 304.064 72.856 308.288 72.856C310.528 72.856 312.896 73.048 315.392 73.432C317.888 73.752 320.096 74.264 322.016 74.968V71.32C322.016 67.48 320.864 64.4721 318.56 62.2961C316.256 60.0561 312.992 58.9361 308.768 58.9361C306.016 58.9361 303.36 59.448 300.8 60.472C298.304 61.432 295.648 62.84 292.832 64.696L289.76 58.744C293.024 56.504 296.288 54.84 299.552 53.752C302.816 52.6 306.208 52.024 309.728 52.024C316.128 52.024 321.184 53.8161 324.896 57.4001C328.608 60.9201 330.464 65.848 330.464 72.184V93.4001C330.464 94.4241 330.656 95.1921 331.04 95.7041C331.488 96.1521 332.192 96.408 333.152 96.472V103C332.32 103.128 331.584 103.224 330.944 103.288C330.368 103.352 329.888 103.384 329.504 103.384C327.52 103.384 326.016 102.84 324.992 101.752C324.032 100.664 323.488 99.512 323.36 98.296L323.168 95.128C320.992 97.944 318.144 100.12 314.624 101.656C311.104 103.192 307.616 103.96 304.16 103.96C300.832 103.96 297.856 103.288 295.232 101.944C292.608 100.536 290.56 98.68 289.088 96.376C287.616 94.008 286.88 91.384 286.88 88.504ZM319.52 92.056C320.288 91.16 320.896 90.264 321.344 89.368C321.792 88.408 322.016 87.6081 322.016 86.9681V80.728C320.032 79.96 317.952 79.384 315.776 79C313.6 78.552 311.456 78.328 309.344 78.328C305.056 78.328 301.568 79.192 298.88 80.92C296.256 82.584 294.944 84.8881 294.944 87.8321C294.944 89.4321 295.36 91.0001 296.192 92.5361C297.088 94.0081 298.368 95.224 300.032 96.184C301.76 97.144 303.872 97.6241 306.368 97.6241C308.992 97.6241 311.488 97.112 313.856 96.088C316.224 95 318.112 93.656 319.52 92.056Z" fill="black"/>
<path d="M363.632 34.84H377.072L402.128 103H388.496L382.16 86.008H358.352L352.112 103H338.48L363.632 34.84ZM379.76 76.696L370.352 48.568L360.56 76.696H379.76Z" fill="black"/>
<path d="M407.856 103V52.696H420.72V103H407.856ZM407.856 45.688V32.92H420.72V45.688H407.856Z" fill="black"/>
</g>
</g>
<path d="M46.3466 193.16C44.5333 193.16 43.008 192.851 41.7706 192.232C40.5333 191.592 39.5413 190.739 38.7946 189.672C38.048 188.584 37.504 187.357 37.1626 185.992C36.8213 184.627 36.6506 183.219 36.6506 181.768V170.28H39.5306V181.768C39.5306 182.877 39.6373 183.965 39.8506 185.032C40.0853 186.077 40.4586 187.016 40.9706 187.848C41.4826 188.68 42.176 189.341 43.0506 189.832C43.9253 190.323 45.0133 190.568 46.3146 190.568C47.6373 190.568 48.736 190.323 49.6106 189.832C50.4853 189.32 51.1786 188.648 51.6906 187.816C52.2026 186.963 52.5653 186.013 52.7786 184.968C53.0133 183.923 53.1306 182.856 53.1306 181.768V170.28H56.0106V181.768C56.0106 183.304 55.8293 184.765 55.4666 186.152C55.1253 187.517 54.5706 188.723 53.8026 189.768C53.0346 190.813 52.032 191.645 50.7946 192.264C49.5786 192.861 48.096 193.16 46.3466 193.16ZM66.6406 193.32C65.254 193.32 63.9526 193.096 62.7366 192.648C61.5206 192.179 60.4753 191.485 59.6006 190.568L60.6886 188.584C61.6486 189.48 62.6086 190.12 63.5686 190.504C64.5286 190.888 65.51 191.08 66.5126 191.08C67.6646 191.08 68.6033 190.867 69.3286 190.44C70.054 189.992 70.4166 189.341 70.4166 188.488C70.4166 187.869 70.2246 187.411 69.8406 187.112C69.478 186.813 68.9553 186.568 68.2726 186.376C67.59 186.163 66.7793 185.928 65.8406 185.672C64.6886 185.331 63.718 184.968 62.9286 184.584C62.1393 184.2 61.542 183.72 61.1366 183.144C60.7313 182.568 60.5286 181.843 60.5286 180.968C60.5286 179.901 60.806 179.005 61.3606 178.28C61.9153 177.533 62.6726 176.968 63.6326 176.584C64.614 176.2 65.7233 176.008 66.9606 176.008C68.198 176.008 69.318 176.2 70.3206 176.584C71.3233 176.968 72.1873 177.533 72.9126 178.28L71.6326 180.232C70.9713 179.549 70.246 179.048 69.4566 178.728C68.6673 178.387 67.782 178.216 66.8006 178.216C66.2246 178.216 65.6593 178.291 65.1046 178.44C64.55 178.568 64.0913 178.813 63.7286 179.176C63.366 179.517 63.1846 180.008 63.1846 180.648C63.1846 181.181 63.3233 181.608 63.6006 181.928C63.8993 182.227 64.326 182.483 64.8806 182.696C65.4566 182.909 66.15 183.144 66.9606 183.4C68.2193 183.763 69.3073 184.125 70.2246 184.488C71.1633 184.851 71.8886 185.32 72.4006 185.896C72.9126 186.472 73.1686 187.272 73.1686 188.296C73.1686 189.875 72.5713 191.112 71.3766 192.008C70.182 192.883 68.6033 193.32 66.6406 193.32ZM84.5696 193.32C83.311 193.32 82.159 193.096 81.1136 192.648C80.0896 192.179 79.1936 191.549 78.4256 190.76C77.679 189.949 77.0923 189.021 76.6656 187.976C76.2603 186.931 76.0576 185.821 76.0576 184.648C76.0576 183.069 76.4203 181.629 77.1456 180.328C77.871 179.027 78.8736 177.981 80.1536 177.192C81.455 176.403 82.9376 176.008 84.6016 176.008C86.287 176.008 87.7483 176.413 88.9856 177.224C90.2443 178.013 91.215 179.059 91.8976 180.36C92.6016 181.64 92.9536 183.027 92.9536 184.52C92.9536 184.733 92.943 184.947 92.9216 185.16C92.9216 185.352 92.911 185.501 92.8896 185.608H79.0336C79.119 186.696 79.4176 187.667 79.9296 188.52C80.463 189.352 81.1456 190.013 81.9776 190.504C82.8096 190.973 83.7056 191.208 84.6656 191.208C85.6896 191.208 86.6496 190.952 87.5456 190.44C88.463 189.928 89.0923 189.256 89.4336 188.424L91.8656 189.096C91.503 189.907 90.959 190.632 90.2336 191.272C89.5296 191.912 88.687 192.413 87.7056 192.776C86.7456 193.139 85.7003 193.32 84.5696 193.32ZM78.9376 183.656H90.3296C90.2443 182.568 89.935 181.608 89.4016 180.776C88.8683 179.944 88.1856 179.293 87.3536 178.824C86.5216 178.355 85.6043 178.12 84.6016 178.12C83.6203 178.12 82.7136 178.355 81.8816 178.824C81.0496 179.293 80.367 179.944 79.8336 180.776C79.3216 181.608 79.023 182.568 78.9376 183.656ZM112.754 193.32C111.495 193.32 110.354 193.096 109.33 192.648C108.306 192.179 107.42 191.549 106.674 190.76C105.927 189.949 105.351 189.021 104.946 187.976C104.54 186.931 104.338 185.832 104.338 184.68C104.338 183.507 104.54 182.397 104.946 181.352C105.351 180.307 105.927 179.389 106.674 178.6C107.42 177.789 108.306 177.16 109.33 176.712C110.375 176.243 111.516 176.008 112.754 176.008C114.012 176.008 115.154 176.243 116.178 176.712C117.202 177.16 118.087 177.789 118.834 178.6C119.602 179.389 120.188 180.307 120.594 181.352C120.999 182.397 121.202 183.507 121.202 184.68C121.202 185.832 120.999 186.931 120.594 187.976C120.188 189.021 119.612 189.949 118.866 190.76C118.119 191.549 117.223 192.179 116.178 192.648C115.154 193.096 114.012 193.32 112.754 193.32ZM107.218 184.712C107.218 185.864 107.463 186.909 107.954 187.848C108.466 188.787 109.138 189.533 109.97 190.088C110.802 190.621 111.73 190.888 112.754 190.888C113.778 190.888 114.706 190.611 115.538 190.056C116.391 189.501 117.063 188.755 117.554 187.816C118.066 186.856 118.322 185.8 118.322 184.648C118.322 183.496 118.066 182.451 117.554 181.512C117.063 180.573 116.391 179.827 115.538 179.272C114.706 178.717 113.778 178.44 112.754 178.44C111.73 178.44 110.802 178.728 109.97 179.304C109.138 179.859 108.466 180.605 107.954 181.544C107.463 182.483 107.218 183.539 107.218 184.712ZM142.98 193.32C141.614 193.32 140.398 192.979 139.332 192.296C138.265 191.613 137.422 190.749 136.804 189.704V199.816H133.988V176.296H136.484V179.432C137.145 178.408 138.009 177.587 139.076 176.968C140.142 176.328 141.305 176.008 142.564 176.008C143.716 176.008 144.772 176.243 145.732 176.712C146.692 177.181 147.524 177.821 148.228 178.632C148.932 179.443 149.476 180.371 149.86 181.416C150.265 182.44 150.468 183.517 150.468 184.648C150.468 186.227 150.148 187.677 149.508 189C148.889 190.323 148.014 191.379 146.884 192.168C145.753 192.936 144.452 193.32 142.98 193.32ZM142.116 190.888C142.948 190.888 143.694 190.717 144.356 190.376C145.038 190.013 145.614 189.544 146.084 188.968C146.574 188.371 146.948 187.699 147.204 186.952C147.46 186.205 147.588 185.437 147.588 184.648C147.588 183.816 147.438 183.027 147.14 182.28C146.862 181.533 146.457 180.872 145.924 180.296C145.412 179.72 144.804 179.272 144.1 178.952C143.417 178.611 142.67 178.44 141.86 178.44C141.348 178.44 140.814 178.536 140.26 178.728C139.726 178.92 139.214 179.197 138.724 179.56C138.233 179.901 137.817 180.296 137.476 180.744C137.134 181.192 136.91 181.672 136.804 182.184V186.952C137.124 187.677 137.55 188.339 138.084 188.936C138.617 189.533 139.236 190.013 139.94 190.376C140.644 190.717 141.369 190.888 142.116 190.888ZM161.861 193.32C160.602 193.32 159.461 193.096 158.437 192.648C157.413 192.179 156.528 191.549 155.781 190.76C155.034 189.949 154.458 189.021 154.053 187.976C153.648 186.931 153.445 185.832 153.445 184.68C153.445 183.507 153.648 182.397 154.053 181.352C154.458 180.307 155.034 179.389 155.781 178.6C156.528 177.789 157.413 177.16 158.437 176.712C159.482 176.243 160.624 176.008 161.861 176.008C163.12 176.008 164.261 176.243 165.285 176.712C166.309 177.16 167.194 177.789 167.941 178.6C168.709 179.389 169.296 180.307 169.701 181.352C170.106 182.397 170.309 183.507 170.309 184.68C170.309 185.832 170.106 186.931 169.701 187.976C169.296 189.021 168.72 189.949 167.973 190.76C167.226 191.549 166.33 192.179 165.285 192.648C164.261 193.096 163.12 193.32 161.861 193.32ZM156.325 184.712C156.325 185.864 156.57 186.909 157.061 187.848C157.573 188.787 158.245 189.533 159.077 190.088C159.909 190.621 160.837 190.888 161.861 190.888C162.885 190.888 163.813 190.611 164.645 190.056C165.498 189.501 166.17 188.755 166.661 187.816C167.173 186.856 167.429 185.8 167.429 184.648C167.429 183.496 167.173 182.451 166.661 181.512C166.17 180.573 165.498 179.827 164.645 179.272C163.813 178.717 162.885 178.44 161.861 178.44C160.837 178.44 159.909 178.728 159.077 179.304C158.245 179.859 157.573 180.605 157.061 181.544C156.57 182.483 156.325 183.539 156.325 184.712ZM173.273 184.68C173.273 183.101 173.593 181.661 174.233 180.36C174.895 179.037 175.791 177.981 176.921 177.192C178.073 176.403 179.385 176.008 180.857 176.008C182.201 176.008 183.407 176.36 184.473 177.064C185.54 177.768 186.372 178.621 186.969 179.624V169.64H189.785V189.8C189.785 190.141 189.849 190.397 189.977 190.568C190.127 190.717 190.361 190.803 190.681 190.824V193C190.148 193.085 189.732 193.128 189.433 193.128C188.879 193.128 188.388 192.936 187.961 192.552C187.556 192.168 187.353 191.741 187.353 191.272V189.864C186.692 190.931 185.807 191.773 184.697 192.392C183.588 193.011 182.436 193.32 181.241 193.32C180.089 193.32 179.023 193.096 178.041 192.648C177.081 192.179 176.239 191.539 175.513 190.728C174.809 189.917 174.255 189 173.849 187.976C173.465 186.931 173.273 185.832 173.273 184.68ZM186.969 187.144V182.344C186.713 181.619 186.297 180.968 185.721 180.392C185.145 179.795 184.495 179.325 183.769 178.984C183.065 178.621 182.361 178.44 181.657 178.44C180.825 178.44 180.068 178.621 179.385 178.984C178.724 179.325 178.148 179.795 177.657 180.392C177.188 180.968 176.825 181.629 176.569 182.376C176.313 183.123 176.185 183.901 176.185 184.712C176.185 185.544 176.324 186.333 176.601 187.08C176.9 187.827 177.305 188.488 177.817 189.064C178.351 189.64 178.959 190.088 179.641 190.408C180.345 190.728 181.103 190.888 181.913 190.888C182.425 190.888 182.948 190.792 183.481 190.6C184.036 190.408 184.559 190.141 185.049 189.8C185.54 189.459 185.956 189.064 186.297 188.616C186.639 188.147 186.863 187.656 186.969 187.144ZM202.518 193.32C201.26 193.32 200.108 193.096 199.062 192.648C198.038 192.179 197.142 191.549 196.374 190.76C195.628 189.949 195.041 189.021 194.614 187.976C194.209 186.931 194.006 185.821 194.006 184.648C194.006 183.069 194.369 181.629 195.094 180.328C195.82 179.027 196.822 177.981 198.102 177.192C199.404 176.403 200.886 176.008 202.55 176.008C204.236 176.008 205.697 176.413 206.934 177.224C208.193 178.013 209.164 179.059 209.846 180.36C210.55 181.64 210.902 183.027 210.902 184.52C210.902 184.733 210.892 184.947 210.87 185.16C210.87 185.352 210.86 185.501 210.838 185.608H196.982C197.068 186.696 197.366 187.667 197.878 188.52C198.412 189.352 199.094 190.013 199.926 190.504C200.758 190.973 201.654 191.208 202.614 191.208C203.638 191.208 204.598 190.952 205.494 190.44C206.412 189.928 207.041 189.256 207.382 188.424L209.814 189.096C209.452 189.907 208.908 190.632 208.182 191.272C207.478 191.912 206.636 192.413 205.654 192.776C204.694 193.139 203.649 193.32 202.518 193.32ZM196.886 183.656H208.278C208.193 182.568 207.884 181.608 207.35 180.776C206.817 179.944 206.134 179.293 205.302 178.824C204.47 178.355 203.553 178.12 202.55 178.12C201.569 178.12 200.662 178.355 199.83 178.824C198.998 179.293 198.316 179.944 197.782 180.776C197.27 181.608 196.972 182.568 196.886 183.656ZM223.505 178.76C222.097 178.781 220.849 179.144 219.761 179.848C218.694 180.531 217.937 181.48 217.489 182.696V193H214.673V176.296H217.297V180.168C217.873 179.016 218.63 178.088 219.569 177.384C220.529 176.659 221.531 176.253 222.577 176.168C222.79 176.168 222.971 176.168 223.121 176.168C223.27 176.168 223.398 176.179 223.505 176.2V178.76ZM233.833 184.68C233.833 183.101 234.153 181.661 234.793 180.36C235.455 179.037 236.351 177.981 237.481 177.192C238.633 176.403 239.945 176.008 241.417 176.008C242.761 176.008 243.967 176.36 245.033 177.064C246.1 177.768 246.932 178.621 247.529 179.624V169.64H250.345V189.8C250.345 190.141 250.409 190.397 250.537 190.568C250.687 190.717 250.921 190.803 251.241 190.824V193C250.708 193.085 250.292 193.128 249.993 193.128C249.439 193.128 248.948 192.936 248.521 192.552C248.116 192.168 247.913 191.741 247.913 191.272V189.864C247.252 190.931 246.367 191.773 245.257 192.392C244.148 193.011 242.996 193.32 241.801 193.32C240.649 193.32 239.583 193.096 238.601 192.648C237.641 192.179 236.799 191.539 236.073 190.728C235.369 189.917 234.815 189 234.409 187.976C234.025 186.931 233.833 185.832 233.833 184.68ZM247.529 187.144V182.344C247.273 181.619 246.857 180.968 246.281 180.392C245.705 179.795 245.055 179.325 244.329 178.984C243.625 178.621 242.921 178.44 242.217 178.44C241.385 178.44 240.628 178.621 239.945 178.984C239.284 179.325 238.708 179.795 238.217 180.392C237.748 180.968 237.385 181.629 237.129 182.376C236.873 183.123 236.745 183.901 236.745 184.712C236.745 185.544 236.884 186.333 237.161 187.08C237.46 187.827 237.865 188.488 238.377 189.064C238.911 189.64 239.519 190.088 240.201 190.408C240.905 190.728 241.663 190.888 242.473 190.888C242.985 190.888 243.508 190.792 244.041 190.6C244.596 190.408 245.119 190.141 245.609 189.8C246.1 189.459 246.516 189.064 246.857 188.616C247.199 188.147 247.423 187.656 247.529 187.144ZM254.374 188.168C254.374 187.101 254.673 186.184 255.27 185.416C255.889 184.627 256.732 184.019 257.798 183.592C258.865 183.165 260.102 182.952 261.51 182.952C262.257 182.952 263.046 183.016 263.878 183.144C264.71 183.251 265.446 183.421 266.086 183.656V182.44C266.086 181.16 265.702 180.157 264.934 179.432C264.166 178.685 263.078 178.312 261.67 178.312C260.753 178.312 259.868 178.483 259.014 178.824C258.182 179.144 257.297 179.613 256.358 180.232L255.334 178.248C256.422 177.501 257.51 176.947 258.598 176.584C259.686 176.2 260.817 176.008 261.99 176.008C264.124 176.008 265.809 176.605 267.046 177.8C268.284 178.973 268.902 180.616 268.902 182.728V189.8C268.902 190.141 268.966 190.397 269.094 190.568C269.244 190.717 269.478 190.803 269.798 190.824V193C269.521 193.043 269.276 193.075 269.062 193.096C268.87 193.117 268.71 193.128 268.582 193.128C267.921 193.128 267.42 192.947 267.078 192.584C266.758 192.221 266.577 191.837 266.534 191.432L266.47 190.376C265.745 191.315 264.796 192.04 263.622 192.552C262.449 193.064 261.286 193.32 260.134 193.32C259.025 193.32 258.033 193.096 257.158 192.648C256.284 192.179 255.601 191.56 255.11 190.792C254.62 190.003 254.374 189.128 254.374 188.168ZM265.254 189.352C265.51 189.053 265.713 188.755 265.862 188.456C266.012 188.136 266.086 187.869 266.086 187.656V185.576C265.425 185.32 264.732 185.128 264.006 185C263.281 184.851 262.566 184.776 261.862 184.776C260.433 184.776 259.27 185.064 258.374 185.64C257.5 186.195 257.062 186.963 257.062 187.944C257.062 188.477 257.201 189 257.478 189.512C257.777 190.003 258.204 190.408 258.758 190.728C259.334 191.048 260.038 191.208 260.87 191.208C261.745 191.208 262.577 191.037 263.366 190.696C264.156 190.333 264.785 189.885 265.254 189.352ZM283.067 193V170.28H286.651V193H283.067ZM306.986 193H303.466V183.624C303.466 182.067 303.21 180.925 302.698 180.2C302.207 179.475 301.471 179.112 300.49 179.112C299.807 179.112 299.124 179.283 298.442 179.624C297.78 179.965 297.183 180.435 296.65 181.032C296.116 181.608 295.732 182.28 295.498 183.048V193H291.978V176.264H295.178V179.624C295.604 178.877 296.159 178.237 296.842 177.704C297.546 177.149 298.335 176.723 299.21 176.424C300.084 176.125 301.012 175.976 301.994 175.976C302.996 175.976 303.818 176.157 304.458 176.52C305.119 176.883 305.631 177.384 305.994 178.024C306.378 178.643 306.634 179.368 306.762 180.2C306.911 181.011 306.986 181.875 306.986 182.792V193ZM320.898 192.136C320.6 192.285 320.226 192.445 319.778 192.616C319.33 192.787 318.818 192.936 318.242 193.064C317.688 193.192 317.112 193.256 316.514 193.256C315.789 193.256 315.117 193.128 314.498 192.872C313.88 192.616 313.378 192.211 312.994 191.656C312.632 191.08 312.45 190.344 312.45 189.448V178.984H310.242V176.264H312.45V170.76H315.97V176.264H319.618V178.984H315.97V188.328C316.013 188.904 316.194 189.331 316.514 189.608C316.856 189.885 317.272 190.024 317.762 190.024C318.253 190.024 318.722 189.939 319.17 189.768C319.618 189.597 319.949 189.459 320.162 189.352L320.898 192.136ZM331.342 193.32C330.04 193.32 328.856 193.096 327.79 192.648C326.744 192.179 325.838 191.549 325.07 190.76C324.302 189.949 323.704 189.032 323.278 188.008C322.872 186.963 322.67 185.853 322.67 184.68C322.67 183.101 323.032 181.661 323.758 180.36C324.483 179.037 325.496 177.981 326.798 177.192C328.099 176.381 329.624 175.976 331.374 175.976C333.123 175.976 334.627 176.381 335.886 177.192C337.166 177.981 338.158 179.027 338.862 180.328C339.566 181.629 339.918 183.027 339.918 184.52C339.918 184.776 339.907 185.021 339.886 185.256C339.864 185.469 339.843 185.651 339.822 185.8H326.414C326.478 186.781 326.744 187.645 327.214 188.392C327.704 189.117 328.323 189.693 329.07 190.12C329.816 190.525 330.616 190.728 331.47 190.728C332.408 190.728 333.294 190.493 334.126 190.024C334.979 189.555 335.555 188.936 335.854 188.168L338.862 189.032C338.499 189.843 337.944 190.579 337.198 191.24C336.472 191.88 335.608 192.392 334.606 192.776C333.603 193.139 332.515 193.32 331.342 193.32ZM326.318 183.464H336.43C336.366 182.504 336.088 181.661 335.598 180.936C335.128 180.189 334.52 179.613 333.774 179.208C333.048 178.781 332.238 178.568 331.342 178.568C330.467 178.568 329.656 178.781 328.91 179.208C328.184 179.613 327.587 180.189 327.118 180.936C326.648 181.661 326.382 182.504 326.318 183.464ZM343.461 169.64H346.981V188.168C346.981 189.021 347.109 189.565 347.365 189.8C347.621 190.035 347.941 190.152 348.325 190.152C348.752 190.152 349.146 190.109 349.509 190.024C349.893 189.939 350.224 189.832 350.501 189.704L351.013 192.488C350.501 192.701 349.893 192.883 349.189 193.032C348.485 193.181 347.856 193.256 347.301 193.256C346.106 193.256 345.168 192.925 344.485 192.264C343.802 191.581 343.461 190.643 343.461 189.448V169.64ZM353.694 193V176.264H357.214V193H353.694ZM353.694 173.512V169.64H357.214V173.512H353.694ZM368.708 193.16C367.577 193.16 366.543 192.936 365.604 192.488C364.665 192.019 363.855 191.389 363.172 190.6C362.511 189.811 361.988 188.904 361.604 187.88C361.241 186.856 361.06 185.779 361.06 184.648C361.06 183.453 361.252 182.333 361.636 181.288C362.02 180.243 362.553 179.325 363.236 178.536C363.94 177.725 364.761 177.096 365.7 176.648C366.639 176.2 367.684 175.976 368.836 175.976C370.18 175.976 371.353 176.296 372.356 176.936C373.38 177.576 374.223 178.408 374.884 179.432V176.264H377.988V192.52C377.988 194.141 377.593 195.517 376.804 196.648C376.036 197.779 374.98 198.643 373.636 199.24C372.292 199.837 370.777 200.136 369.092 200.136C367.236 200.136 365.7 199.816 364.484 199.176C363.268 198.536 362.233 197.661 361.38 196.552L363.364 194.696C364.004 195.592 364.825 196.275 365.828 196.744C366.852 197.213 367.94 197.448 369.092 197.448C370.052 197.448 370.937 197.267 371.748 196.904C372.58 196.563 373.241 196.019 373.732 195.272C374.223 194.547 374.468 193.629 374.468 192.52V189.96C373.871 190.963 373.049 191.752 372.004 192.328C370.959 192.883 369.86 193.16 368.708 193.16ZM369.86 190.312C370.393 190.312 370.905 190.227 371.396 190.056C371.887 189.864 372.335 189.619 372.74 189.32C373.167 189 373.529 188.648 373.828 188.264C374.127 187.859 374.34 187.432 374.468 186.984V182.6C374.191 181.875 373.796 181.245 373.284 180.712C372.772 180.157 372.196 179.731 371.556 179.432C370.916 179.133 370.265 178.984 369.604 178.984C368.836 178.984 368.143 179.155 367.524 179.496C366.927 179.816 366.415 180.253 365.988 180.808C365.561 181.341 365.231 181.949 364.996 182.632C364.761 183.315 364.644 184.019 364.644 184.744C364.644 185.512 364.772 186.227 365.028 186.888C365.305 187.549 365.679 188.147 366.148 188.68C366.617 189.192 367.172 189.597 367.812 189.896C368.452 190.173 369.135 190.312 369.86 190.312ZM390.433 193.32C389.132 193.32 387.948 193.096 386.881 192.648C385.836 192.179 384.929 191.549 384.161 190.76C383.393 189.949 382.796 189.032 382.369 188.008C381.964 186.963 381.761 185.853 381.761 184.68C381.761 183.101 382.124 181.661 382.849 180.36C383.574 179.037 384.588 177.981 385.889 177.192C387.19 176.381 388.716 175.976 390.465 175.976C392.214 175.976 393.718 176.381 394.977 177.192C396.257 177.981 397.249 179.027 397.953 180.328C398.657 181.629 399.009 183.027 399.009 184.52C399.009 184.776 398.998 185.021 398.977 185.256C398.956 185.469 398.934 185.651 398.913 185.8H385.505C385.569 186.781 385.836 187.645 386.305 188.392C386.796 189.117 387.414 189.693 388.161 190.12C388.908 190.525 389.708 190.728 390.561 190.728C391.5 190.728 392.385 190.493 393.217 190.024C394.07 189.555 394.646 188.936 394.945 188.168L397.953 189.032C397.59 189.843 397.036 190.579 396.289 191.24C395.564 191.88 394.7 192.392 393.697 192.776C392.694 193.139 391.606 193.32 390.433 193.32ZM385.409 183.464H395.521C395.457 182.504 395.18 181.661 394.689 180.936C394.22 180.189 393.612 179.613 392.865 179.208C392.14 178.781 391.329 178.568 390.433 178.568C389.558 178.568 388.748 178.781 388.001 179.208C387.276 179.613 386.678 180.189 386.209 180.936C385.74 181.661 385.473 182.504 385.409 183.464ZM417.528 193H414.008V183.624C414.008 182.067 413.752 180.925 413.24 180.2C412.749 179.475 412.013 179.112 411.032 179.112C410.349 179.112 409.667 179.283 408.984 179.624C408.323 179.965 407.725 180.435 407.192 181.032C406.659 181.608 406.275 182.28 406.04 183.048V193H402.52V176.264H405.72V179.624C406.147 178.877 406.701 178.237 407.384 177.704C408.088 177.149 408.877 176.723 409.752 176.424C410.627 176.125 411.555 175.976 412.536 175.976C413.539 175.976 414.36 176.157 415 176.52C415.661 176.883 416.173 177.384 416.536 178.024C416.92 178.643 417.176 179.368 417.304 180.2C417.453 181.011 417.528 181.875 417.528 182.792V193ZM429.838 193.32C428.537 193.32 427.353 193.096 426.286 192.648C425.241 192.179 424.334 191.539 423.566 190.728C422.798 189.917 422.201 188.989 421.774 187.944C421.369 186.899 421.166 185.789 421.166 184.616C421.166 183.037 421.518 181.597 422.222 180.296C422.947 178.995 423.95 177.949 425.23 177.16C426.531 176.371 428.067 175.976 429.838 175.976C431.545 175.976 433.027 176.36 434.286 177.128C435.566 177.875 436.505 178.877 437.102 180.136L433.678 181.224C433.294 180.52 432.75 179.976 432.046 179.592C431.363 179.187 430.606 178.984 429.774 178.984C428.835 178.984 427.982 179.229 427.214 179.72C426.467 180.189 425.87 180.851 425.422 181.704C424.995 182.536 424.782 183.507 424.782 184.616C424.782 185.683 425.006 186.653 425.454 187.528C425.902 188.381 426.499 189.064 427.246 189.576C428.014 190.067 428.867 190.312 429.806 190.312C430.382 190.312 430.937 190.216 431.47 190.024C432.025 189.811 432.505 189.533 432.91 189.192C433.315 188.829 433.603 188.435 433.774 188.008L437.23 189.032C436.867 189.864 436.323 190.6 435.598 191.24C434.894 191.88 434.051 192.392 433.07 192.776C432.11 193.139 431.033 193.32 429.838 193.32ZM440.769 193V176.264H444.289V193H440.769ZM440.769 173.512V169.64H444.289V173.512H440.769ZM447.943 188.104C447.943 187.037 448.242 186.109 448.839 185.32C449.458 184.509 450.3 183.891 451.367 183.464C452.434 183.016 453.671 182.792 455.079 182.792C455.826 182.792 456.583 182.845 457.351 182.952C458.14 183.059 458.834 183.229 459.431 183.464V182.408C459.431 181.235 459.079 180.317 458.375 179.656C457.671 178.995 456.658 178.664 455.335 178.664C454.396 178.664 453.511 178.835 452.679 179.176C451.847 179.496 450.962 179.955 450.023 180.552L448.839 178.184C449.948 177.437 451.058 176.883 452.167 176.52C453.298 176.157 454.482 175.976 455.719 175.976C457.959 175.976 459.719 176.573 460.999 177.768C462.3 178.941 462.951 180.616 462.951 182.792V189.032C462.951 189.437 463.015 189.725 463.143 189.896C463.292 190.067 463.538 190.163 463.879 190.184V193C463.559 193.064 463.271 193.107 463.015 193.128C462.759 193.149 462.546 193.16 462.375 193.16C461.628 193.16 461.063 192.979 460.679 192.616C460.295 192.253 460.071 191.827 460.007 191.336L459.911 190.376C459.186 191.315 458.258 192.04 457.127 192.552C455.996 193.064 454.855 193.32 453.703 193.32C452.594 193.32 451.602 193.096 450.727 192.648C449.852 192.179 449.17 191.549 448.679 190.76C448.188 189.971 447.943 189.085 447.943 188.104ZM458.599 189.128C458.855 188.851 459.058 188.573 459.207 188.296C459.356 188.019 459.431 187.773 459.431 187.56V185.64C458.834 185.405 458.204 185.235 457.543 185.128C456.882 185 456.231 184.936 455.591 184.936C454.311 184.936 453.266 185.192 452.455 185.704C451.666 186.216 451.271 186.92 451.271 187.816C451.271 188.307 451.399 188.776 451.655 189.224C451.932 189.672 452.316 190.035 452.807 190.312C453.319 190.589 453.948 190.728 454.695 190.728C455.463 190.728 456.199 190.579 456.903 190.28C457.607 189.981 458.172 189.597 458.599 189.128ZM43.4106 208.28H46.8026L55.6346 231H51.8586L49.4586 224.824H40.6906L38.3226 231H34.5146L43.4106 208.28ZM48.7546 222.168L45.1066 212.216L41.3306 222.168H48.7546ZM68.0444 217.304C66.679 217.325 65.463 217.635 64.3964 218.232C63.351 218.829 62.6044 219.672 62.1564 220.76V231H58.6364V214.264H61.9004V218.008C62.4764 216.856 63.2337 215.939 64.1724 215.256C65.111 214.552 66.103 214.168 67.1484 214.104C67.3617 214.104 67.5324 214.104 67.6604 214.104C67.8097 214.104 67.9377 214.115 68.0444 214.136V217.304ZM80.5571 230.136C80.2585 230.285 79.8851 230.445 79.4371 230.616C78.9891 230.787 78.4771 230.936 77.9011 231.064C77.3465 231.192 76.7705 231.256 76.1731 231.256C75.4478 231.256 74.7758 231.128 74.1571 230.872C73.5385 230.616 73.0371 230.211 72.6531 229.656C72.2905 229.08 72.1091 228.344 72.1091 227.448V216.984H69.9011V214.264H72.1091V208.76H75.6291V214.264H79.2771V216.984H75.6291V226.328C75.6718 226.904 75.8531 227.331 76.1731 227.608C76.5145 227.885 76.9305 228.024 77.4211 228.024C77.9118 228.024 78.3811 227.939 78.8291 227.768C79.2771 227.597 79.6078 227.459 79.8211 227.352L80.5571 230.136ZM83.6351 231V214.264H87.1551V231H83.6351ZM83.6351 211.512V207.64H87.1551V211.512H83.6351ZM92.9851 217.4H90.7451V214.68H92.9851V214.008C92.9851 213.133 93.1238 212.301 93.4011 211.512C93.6785 210.701 94.0944 209.987 94.6491 209.368C95.2038 208.728 95.8758 208.227 96.6651 207.864C97.4758 207.501 98.4145 207.32 99.4811 207.32C100.27 207.32 101.006 207.405 101.689 207.576C102.393 207.747 103.033 207.981 103.609 208.28C104.206 208.557 104.729 208.856 105.177 209.176L103.737 211.8C103.268 211.373 102.67 211.021 101.945 210.744C101.22 210.467 100.473 210.328 99.7051 210.328C98.9798 210.328 98.3718 210.499 97.8811 210.84C97.4118 211.181 97.0598 211.629 96.8251 212.184C96.6118 212.739 96.5051 213.315 96.5051 213.912V214.68H105.273V231H101.753V217.4H96.5051V231H92.9851V217.4ZM117.718 231.32C116.417 231.32 115.233 231.096 114.166 230.648C113.121 230.179 112.214 229.539 111.446 228.728C110.678 227.917 110.081 226.989 109.654 225.944C109.249 224.899 109.046 223.789 109.046 222.616C109.046 221.037 109.398 219.597 110.102 218.296C110.827 216.995 111.83 215.949 113.11 215.16C114.411 214.371 115.947 213.976 117.718 213.976C119.425 213.976 120.907 214.36 122.166 215.128C123.446 215.875 124.385 216.877 124.982 218.136L121.558 219.224C121.174 218.52 120.63 217.976 119.926 217.592C119.243 217.187 118.486 216.984 117.654 216.984C116.715 216.984 115.862 217.229 115.094 217.72C114.347 218.189 113.75 218.851 113.302 219.704C112.875 220.536 112.662 221.507 112.662 222.616C112.662 223.683 112.886 224.653 113.334 225.528C113.782 226.381 114.379 227.064 115.126 227.576C115.894 228.067 116.747 228.312 117.686 228.312C118.262 228.312 118.817 228.216 119.35 228.024C119.905 227.811 120.385 227.533 120.79 227.192C121.195 226.829 121.483 226.435 121.654 226.008L125.11 227.032C124.747 227.864 124.203 228.6 123.478 229.24C122.774 229.88 121.931 230.392 120.95 230.776C119.99 231.139 118.913 231.32 117.718 231.32ZM128.649 231V214.264H132.169V231H128.649ZM128.649 211.512V207.64H132.169V211.512H128.649ZM135.823 226.104C135.823 225.037 136.122 224.109 136.719 223.32C137.338 222.509 138.18 221.891 139.247 221.464C140.314 221.016 141.551 220.792 142.959 220.792C143.706 220.792 144.463 220.845 145.231 220.952C146.02 221.059 146.714 221.229 147.311 221.464V220.408C147.311 219.235 146.959 218.317 146.255 217.656C145.551 216.995 144.538 216.664 143.215 216.664C142.276 216.664 141.391 216.835 140.559 217.176C139.727 217.496 138.842 217.955 137.903 218.552L136.719 216.184C137.828 215.437 138.938 214.883 140.047 214.52C141.178 214.157 142.362 213.976 143.599 213.976C145.839 213.976 147.599 214.573 148.879 215.768C150.18 216.941 150.831 218.616 150.831 220.792V227.032C150.831 227.437 150.895 227.725 151.023 227.896C151.172 228.067 151.418 228.163 151.759 228.184V231C151.439 231.064 151.151 231.107 150.895 231.128C150.639 231.149 150.426 231.16 150.255 231.16C149.508 231.16 148.943 230.979 148.559 230.616C148.175 230.253 147.951 229.827 147.887 229.336L147.791 228.376C147.066 229.315 146.138 230.04 145.007 230.552C143.876 231.064 142.735 231.32 141.583 231.32C140.474 231.32 139.482 231.096 138.607 230.648C137.732 230.179 137.05 229.549 136.559 228.76C136.068 227.971 135.823 227.085 135.823 226.104ZM146.479 227.128C146.735 226.851 146.938 226.573 147.087 226.296C147.236 226.019 147.311 225.773 147.311 225.56V223.64C146.714 223.405 146.084 223.235 145.423 223.128C144.762 223 144.111 222.936 143.471 222.936C142.191 222.936 141.146 223.192 140.335 223.704C139.546 224.216 139.151 224.92 139.151 225.816C139.151 226.307 139.279 226.776 139.535 227.224C139.812 227.672 140.196 228.035 140.687 228.312C141.199 228.589 141.828 228.728 142.575 228.728C143.343 228.728 144.079 228.579 144.783 228.28C145.487 227.981 146.052 227.597 146.479 227.128ZM155.773 207.64H159.293V226.168C159.293 227.021 159.421 227.565 159.677 227.8C159.933 228.035 160.253 228.152 160.637 228.152C161.064 228.152 161.459 228.109 161.821 228.024C162.205 227.939 162.536 227.832 162.813 227.704L163.325 230.488C162.813 230.701 162.205 230.883 161.501 231.032C160.797 231.181 160.168 231.256 159.613 231.256C158.419 231.256 157.48 230.925 156.797 230.264C156.115 229.581 155.773 228.643 155.773 227.448V207.64ZM183.892 231.32C182.527 231.32 181.311 230.979 180.244 230.296C179.177 229.613 178.335 228.749 177.716 227.704V237.816H174.9V214.296H177.396V217.432C178.057 216.408 178.921 215.587 179.988 214.968C181.055 214.328 182.217 214.008 183.476 214.008C184.628 214.008 185.684 214.243 186.644 214.712C187.604 215.181 188.436 215.821 189.14 216.632C189.844 217.443 190.388 218.371 190.772 219.416C191.177 220.44 191.38 221.517 191.38 222.648C191.38 224.227 191.06 225.677 190.42 227C189.801 228.323 188.927 229.379 187.796 230.168C186.665 230.936 185.364 231.32 183.892 231.32ZM183.028 228.888C183.86 228.888 184.607 228.717 185.268 228.376C185.951 228.013 186.527 227.544 186.996 226.968C187.487 226.371 187.86 225.699 188.116 224.952C188.372 224.205 188.5 223.437 188.5 222.648C188.5 221.816 188.351 221.027 188.052 220.28C187.775 219.533 187.369 218.872 186.836 218.296C186.324 217.72 185.716 217.272 185.012 216.952C184.329 216.611 183.583 216.44 182.772 216.44C182.26 216.44 181.727 216.536 181.172 216.728C180.639 216.92 180.127 217.197 179.636 217.56C179.145 217.901 178.729 218.296 178.388 218.744C178.047 219.192 177.823 219.672 177.716 220.184V224.952C178.036 225.677 178.463 226.339 178.996 226.936C179.529 227.533 180.148 228.013 180.852 228.376C181.556 228.717 182.281 228.888 183.028 228.888ZM194.166 226.168C194.166 225.101 194.464 224.184 195.062 223.416C195.68 222.627 196.523 222.019 197.59 221.592C198.656 221.165 199.894 220.952 201.302 220.952C202.048 220.952 202.838 221.016 203.67 221.144C204.502 221.251 205.238 221.421 205.878 221.656V220.44C205.878 219.16 205.494 218.157 204.726 217.432C203.958 216.685 202.87 216.312 201.462 216.312C200.544 216.312 199.659 216.483 198.806 216.824C197.974 217.144 197.088 217.613 196.15 218.232L195.126 216.248C196.214 215.501 197.302 214.947 198.39 214.584C199.478 214.2 200.608 214.008 201.782 214.008C203.915 214.008 205.6 214.605 206.838 215.8C208.075 216.973 208.694 218.616 208.694 220.728V227.8C208.694 228.141 208.758 228.397 208.886 228.568C209.035 228.717 209.27 228.803 209.59 228.824V231C209.312 231.043 209.067 231.075 208.854 231.096C208.662 231.117 208.502 231.128 208.374 231.128C207.712 231.128 207.211 230.947 206.87 230.584C206.55 230.221 206.368 229.837 206.326 229.432L206.262 228.376C205.536 229.315 204.587 230.04 203.414 230.552C202.24 231.064 201.078 231.32 199.926 231.32C198.816 231.32 197.824 231.096 196.95 230.648C196.075 230.179 195.392 229.56 194.902 228.792C194.411 228.003 194.166 227.128 194.166 226.168ZM205.046 227.352C205.302 227.053 205.504 226.755 205.654 226.456C205.803 226.136 205.878 225.869 205.878 225.656V223.576C205.216 223.32 204.523 223.128 203.798 223C203.072 222.851 202.358 222.776 201.654 222.776C200.224 222.776 199.062 223.064 198.166 223.64C197.291 224.195 196.854 224.963 196.854 225.944C196.854 226.477 196.992 227 197.27 227.512C197.568 228.003 197.995 228.408 198.55 228.728C199.126 229.048 199.83 229.208 200.662 229.208C201.536 229.208 202.368 229.037 203.158 228.696C203.947 228.333 204.576 227.885 205.046 227.352ZM222.668 216.76C221.26 216.781 220.012 217.144 218.924 217.848C217.858 218.531 217.1 219.48 216.652 220.696V231H213.836V214.296H216.46V218.168C217.036 217.016 217.794 216.088 218.732 215.384C219.692 214.659 220.695 214.253 221.74 214.168C221.954 214.168 222.135 214.168 222.284 214.168C222.434 214.168 222.562 214.179 222.668 214.2V216.76ZM224.789 226.168C224.789 225.101 225.088 224.184 225.685 223.416C226.304 222.627 227.147 222.019 228.213 221.592C229.28 221.165 230.517 220.952 231.925 220.952C232.672 220.952 233.461 221.016 234.293 221.144C235.125 221.251 235.861 221.421 236.501 221.656V220.44C236.501 219.16 236.117 218.157 235.349 217.432C234.581 216.685 233.493 216.312 232.085 216.312C231.168 216.312 230.283 216.483 229.429 216.824C228.597 217.144 227.712 217.613 226.773 218.232L225.749 216.248C226.837 215.501 227.925 214.947 229.013 214.584C230.101 214.2 231.232 214.008 232.405 214.008C234.539 214.008 236.224 214.605 237.461 215.8C238.699 216.973 239.317 218.616 239.317 220.728V227.8C239.317 228.141 239.381 228.397 239.509 228.568C239.659 228.717 239.893 228.803 240.213 228.824V231C239.936 231.043 239.691 231.075 239.477 231.096C239.285 231.117 239.125 231.128 238.997 231.128C238.336 231.128 237.835 230.947 237.493 230.584C237.173 230.221 236.992 229.837 236.949 229.432L236.885 228.376C236.16 229.315 235.211 230.04 234.037 230.552C232.864 231.064 231.701 231.32 230.549 231.32C229.44 231.32 228.448 231.096 227.573 230.648C226.699 230.179 226.016 229.56 225.525 228.792C225.035 228.003 224.789 227.128 224.789 226.168ZM235.669 227.352C235.925 227.053 236.128 226.755 236.277 226.456C236.427 226.136 236.501 225.869 236.501 225.656V223.576C235.84 223.32 235.147 223.128 234.421 223C233.696 222.851 232.981 222.776 232.277 222.776C230.848 222.776 229.685 223.064 228.789 223.64C227.915 224.195 227.477 224.963 227.477 225.944C227.477 226.477 227.616 227 227.893 227.512C228.192 228.003 228.619 228.408 229.173 228.728C229.749 229.048 230.453 229.208 231.285 229.208C232.16 229.208 232.992 229.037 233.781 228.696C234.571 228.333 235.2 227.885 235.669 227.352ZM260.586 231.32C259.327 231.32 258.175 231.096 257.13 230.648C256.106 230.179 255.21 229.539 254.442 228.728C253.695 227.917 253.109 226.989 252.682 225.944C252.277 224.899 252.074 223.789 252.074 222.616C252.074 221.037 252.426 219.597 253.13 218.296C253.834 216.995 254.826 215.96 256.106 215.192C257.386 214.403 258.869 214.008 260.554 214.008C262.197 214.008 263.626 214.381 264.842 215.128C266.079 215.853 266.997 216.835 267.594 218.072L264.842 218.936C264.415 218.147 263.818 217.539 263.05 217.112C262.282 216.664 261.429 216.44 260.49 216.44C259.466 216.44 258.527 216.707 257.674 217.24C256.842 217.773 256.181 218.509 255.69 219.448C255.199 220.365 254.954 221.421 254.954 222.616C254.954 223.789 255.199 224.856 255.69 225.816C256.202 226.755 256.874 227.501 257.706 228.056C258.559 228.611 259.498 228.888 260.522 228.888C261.183 228.888 261.813 228.771 262.41 228.536C263.029 228.301 263.562 227.992 264.01 227.608C264.479 227.203 264.799 226.765 264.97 226.296L267.722 227.128C267.381 227.939 266.858 228.664 266.154 229.304C265.471 229.923 264.65 230.413 263.69 230.776C262.751 231.139 261.717 231.32 260.586 231.32ZM278.692 231.32C277.434 231.32 276.292 231.096 275.268 230.648C274.244 230.179 273.359 229.549 272.612 228.76C271.866 227.949 271.29 227.021 270.884 225.976C270.479 224.931 270.276 223.832 270.276 222.68C270.276 221.507 270.479 220.397 270.884 219.352C271.29 218.307 271.866 217.389 272.612 216.6C273.359 215.789 274.244 215.16 275.268 214.712C276.314 214.243 277.455 214.008 278.692 214.008C279.951 214.008 281.092 214.243 282.116 214.712C283.14 215.16 284.026 215.789 284.772 216.6C285.54 217.389 286.127 218.307 286.532 219.352C286.938 220.397 287.14 221.507 287.14 222.68C287.14 223.832 286.938 224.931 286.532 225.976C286.127 227.021 285.551 227.949 284.804 228.76C284.058 229.549 283.162 230.179 282.116 230.648C281.092 231.096 279.951 231.32 278.692 231.32ZM273.156 222.712C273.156 223.864 273.402 224.909 273.892 225.848C274.404 226.787 275.076 227.533 275.908 228.088C276.74 228.621 277.668 228.888 278.692 228.888C279.716 228.888 280.644 228.611 281.476 228.056C282.33 227.501 283.002 226.755 283.492 225.816C284.004 224.856 284.26 223.8 284.26 222.648C284.26 221.496 284.004 220.451 283.492 219.512C283.002 218.573 282.33 217.827 281.476 217.272C280.644 216.717 279.716 216.44 278.692 216.44C277.668 216.44 276.74 216.728 275.908 217.304C275.076 217.859 274.404 218.605 273.892 219.544C273.402 220.483 273.156 221.539 273.156 222.712ZM300.025 216.76C298.617 216.781 297.369 217.144 296.281 217.848C295.214 218.531 294.457 219.48 294.009 220.696V231H291.193V214.296H293.817V218.168C294.393 217.016 295.15 216.088 296.089 215.384C297.049 214.659 298.051 214.253 299.097 214.168C299.31 214.168 299.491 214.168 299.641 214.168C299.79 214.168 299.918 214.179 300.025 214.2V216.76ZM312.29 216.76C310.882 216.781 309.634 217.144 308.546 217.848C307.479 218.531 306.722 219.48 306.274 220.696V231H303.458V214.296H306.082V218.168C306.658 217.016 307.415 216.088 308.354 215.384C309.314 214.659 310.316 214.253 311.362 214.168C311.575 214.168 311.756 214.168 311.906 214.168C312.055 214.168 312.183 214.179 312.29 214.2V216.76ZM315.723 231V214.296H318.539V231H315.723ZM315.723 211.16V207.64H318.539V211.16H315.723ZM330.394 231.192C329.263 231.192 328.218 230.968 327.258 230.52C326.319 230.051 325.508 229.421 324.826 228.632C324.143 227.821 323.61 226.904 323.226 225.88C322.863 224.856 322.682 223.789 322.682 222.68C322.682 221.507 322.863 220.397 323.226 219.352C323.61 218.307 324.143 217.389 324.826 216.6C325.53 215.789 326.351 215.16 327.29 214.712C328.228 214.243 329.274 214.008 330.426 214.008C331.812 214.008 333.018 214.349 334.042 215.032C335.087 215.715 335.962 216.579 336.666 217.624V214.296H339.162V230.808C339.162 232.387 338.778 233.72 338.01 234.808C337.263 235.896 336.239 236.717 334.938 237.272C333.658 237.848 332.228 238.136 330.65 238.136C328.772 238.136 327.236 237.805 326.042 237.144C324.847 236.483 323.855 235.587 323.066 234.456L324.698 233.016C325.359 233.997 326.212 234.733 327.258 235.224C328.324 235.715 329.455 235.96 330.65 235.96C331.674 235.96 332.612 235.768 333.466 235.384C334.34 235.021 335.034 234.456 335.546 233.688C336.079 232.92 336.346 231.96 336.346 230.808V227.864C335.727 228.888 334.874 229.699 333.786 230.296C332.719 230.893 331.588 231.192 330.394 231.192ZM331.258 228.888C331.855 228.888 332.431 228.781 332.986 228.568C333.54 228.355 334.052 228.077 334.522 227.736C334.991 227.373 335.386 226.968 335.706 226.52C336.026 226.072 336.239 225.613 336.346 225.144V220.344C336.047 219.576 335.62 218.904 335.066 218.328C334.511 217.731 333.882 217.272 333.178 216.952C332.474 216.611 331.748 216.44 331.002 216.44C330.148 216.44 329.38 216.621 328.698 216.984C328.036 217.347 327.471 217.837 327.002 218.456C326.532 219.053 326.17 219.725 325.914 220.472C325.658 221.219 325.53 221.976 325.53 222.744C325.53 223.576 325.679 224.365 325.978 225.112C326.276 225.837 326.682 226.488 327.194 227.064C327.706 227.64 328.314 228.088 329.018 228.408C329.722 228.728 330.468 228.888 331.258 228.888ZM344.346 231V214.296H347.162V231H344.346ZM344.346 211.16V207.64H347.162V211.16H344.346ZM361.193 216.76C359.785 216.781 358.537 217.144 357.449 217.848C356.383 218.531 355.625 219.48 355.177 220.696V231H352.361V214.296H354.985V218.168C355.561 217.016 356.319 216.088 357.257 215.384C358.217 214.659 359.22 214.253 360.265 214.168C360.479 214.168 360.66 214.168 360.809 214.168C360.959 214.168 361.087 214.179 361.193 214.2V216.76ZM381.25 230.168C381.015 230.275 380.695 230.413 380.29 230.584C379.885 230.755 379.415 230.904 378.882 231.032C378.349 231.16 377.783 231.224 377.186 231.224C376.503 231.224 375.874 231.107 375.298 230.872C374.722 230.616 374.263 230.232 373.922 229.72C373.581 229.187 373.41 228.525 373.41 227.736V216.504H371.138V214.296H373.41V208.728H376.226V214.296H379.97V216.504H376.226V226.872C376.269 227.469 376.471 227.917 376.834 228.216C377.197 228.493 377.623 228.632 378.114 228.632C378.669 228.632 379.181 228.536 379.65 228.344C380.119 228.152 380.429 228.013 380.578 227.928L381.25 230.168ZM391.673 231.32C390.415 231.32 389.263 231.096 388.217 230.648C387.193 230.179 386.297 229.549 385.529 228.76C384.783 227.949 384.196 227.021 383.769 225.976C383.364 224.931 383.161 223.821 383.161 222.648C383.161 221.069 383.524 219.629 384.249 218.328C384.975 217.027 385.977 215.981 387.257 215.192C388.559 214.403 390.041 214.008 391.705 214.008C393.391 214.008 394.852 214.413 396.089 215.224C397.348 216.013 398.319 217.059 399.001 218.36C399.705 219.64 400.057 221.027 400.057 222.52C400.057 222.733 400.047 222.947 400.025 223.16C400.025 223.352 400.015 223.501 399.993 223.608H386.137C386.223 224.696 386.521 225.667 387.033 226.52C387.567 227.352 388.249 228.013 389.081 228.504C389.913 228.973 390.809 229.208 391.769 229.208C392.793 229.208 393.753 228.952 394.649 228.44C395.567 227.928 396.196 227.256 396.537 226.424L398.969 227.096C398.607 227.907 398.063 228.632 397.337 229.272C396.633 229.912 395.791 230.413 394.809 230.776C393.849 231.139 392.804 231.32 391.673 231.32ZM386.041 221.656H397.433C397.348 220.568 397.039 219.608 396.505 218.776C395.972 217.944 395.289 217.293 394.457 216.824C393.625 216.355 392.708 216.12 391.705 216.12C390.724 216.12 389.817 216.355 388.985 216.824C388.153 217.293 387.471 217.944 386.937 218.776C386.425 219.608 386.127 220.568 386.041 221.656ZM404.451 214.296L408.867 220.44L409.123 220.952L409.411 220.44L413.795 214.296H416.931L410.755 222.68L416.963 231H413.827L409.411 224.888L409.123 224.408L408.867 224.888L404.451 231H401.315L407.523 222.68L401.347 214.296H404.451ZM428.889 230.168C428.654 230.275 428.334 230.413 427.929 230.584C427.524 230.755 427.054 230.904 426.521 231.032C425.988 231.16 425.422 231.224 424.825 231.224C424.142 231.224 423.513 231.107 422.937 230.872C422.361 230.616 421.902 230.232 421.561 229.72C421.22 229.187 421.049 228.525 421.049 227.736V216.504H418.777V214.296H421.049V208.728H423.865V214.296H427.609V216.504H423.865V226.872C423.908 227.469 424.11 227.917 424.473 228.216C424.836 228.493 425.262 228.632 425.753 228.632C426.308 228.632 426.82 228.536 427.289 228.344C427.758 228.152 428.068 228.013 428.217 227.928L428.889 230.168ZM439.216 231.32C437.957 231.32 436.816 231.096 435.792 230.648C434.768 230.179 433.883 229.549 433.136 228.76C432.389 227.949 431.813 227.021 431.408 225.976C431.003 224.931 430.8 223.832 430.8 222.68C430.8 221.507 431.003 220.397 431.408 219.352C431.813 218.307 432.389 217.389 433.136 216.6C433.883 215.789 434.768 215.16 435.792 214.712C436.837 214.243 437.979 214.008 439.216 214.008C440.475 214.008 441.616 214.243 442.64 214.712C443.664 215.16 444.549 215.789 445.296 216.6C446.064 217.389 446.651 218.307 447.056 219.352C447.461 220.397 447.664 221.507 447.664 222.68C447.664 223.832 447.461 224.931 447.056 225.976C446.651 227.021 446.075 227.949 445.328 228.76C444.581 229.549 443.685 230.179 442.64 230.648C441.616 231.096 440.475 231.32 439.216 231.32ZM433.68 222.712C433.68 223.864 433.925 224.909 434.416 225.848C434.928 226.787 435.6 227.533 436.432 228.088C437.264 228.621 438.192 228.888 439.216 228.888C440.24 228.888 441.168 228.611 442 228.056C442.853 227.501 443.525 226.755 444.016 225.816C444.528 224.856 444.784 223.8 444.784 222.648C444.784 221.496 444.528 220.451 444.016 219.512C443.525 218.573 442.853 217.827 442 217.272C441.168 216.717 440.24 216.44 439.216 216.44C438.192 216.44 437.264 216.728 436.432 217.304C435.6 217.859 434.928 218.605 434.416 219.544C433.925 220.483 433.68 221.539 433.68 222.712ZM457.444 231.32C456.058 231.32 454.756 231.096 453.54 230.648C452.324 230.179 451.279 229.485 450.404 228.568L451.492 226.584C452.452 227.48 453.412 228.12 454.372 228.504C455.332 228.888 456.314 229.08 457.316 229.08C458.468 229.08 459.407 228.867 460.132 228.44C460.858 227.992 461.22 227.341 461.22 226.488C461.22 225.869 461.028 225.411 460.644 225.112C460.282 224.813 459.759 224.568 459.076 224.376C458.394 224.163 457.583 223.928 456.644 223.672C455.492 223.331 454.522 222.968 453.732 222.584C452.943 222.2 452.346 221.72 451.94 221.144C451.535 220.568 451.332 219.843 451.332 218.968C451.332 217.901 451.61 217.005 452.164 216.28C452.719 215.533 453.476 214.968 454.436 214.584C455.418 214.2 456.527 214.008 457.764 214.008C459.002 214.008 460.122 214.2 461.124 214.584C462.127 214.968 462.991 215.533 463.716 216.28L462.436 218.232C461.775 217.549 461.05 217.048 460.26 216.728C459.471 216.387 458.586 216.216 457.604 216.216C457.028 216.216 456.463 216.291 455.908 216.44C455.354 216.568 454.895 216.813 454.532 217.176C454.17 217.517 453.988 218.008 453.988 218.648C453.988 219.181 454.127 219.608 454.404 219.928C454.703 220.227 455.13 220.483 455.684 220.696C456.26 220.909 456.954 221.144 457.764 221.4C459.023 221.763 460.111 222.125 461.028 222.488C461.967 222.851 462.692 223.32 463.204 223.896C463.716 224.472 463.972 225.272 463.972 226.296C463.972 227.875 463.375 229.112 462.18 230.008C460.986 230.883 459.407 231.32 457.444 231.32ZM123.978 260.68C123.978 259.101 124.298 257.661 124.938 256.36C125.599 255.037 126.495 253.981 127.626 253.192C128.778 252.403 130.09 252.008 131.562 252.008C132.906 252.008 134.111 252.36 135.178 253.064C136.244 253.768 137.076 254.621 137.674 255.624V245.64H140.49V265.8C140.49 266.141 140.554 266.397 140.682 266.568C140.831 266.717 141.066 266.803 141.386 266.824V269C140.852 269.085 140.436 269.128 140.138 269.128C139.583 269.128 139.092 268.936 138.666 268.552C138.26 268.168 138.058 267.741 138.058 267.272V265.864C137.396 266.931 136.511 267.773 135.402 268.392C134.292 269.011 133.14 269.32 131.946 269.32C130.794 269.32 129.727 269.096 128.746 268.648C127.786 268.179 126.943 267.539 126.218 266.728C125.514 265.917 124.959 265 124.554 263.976C124.17 262.931 123.978 261.832 123.978 260.68ZM137.674 263.144V258.344C137.418 257.619 137.002 256.968 136.426 256.392C135.85 255.795 135.199 255.325 134.474 254.984C133.77 254.621 133.066 254.44 132.362 254.44C131.53 254.44 130.772 254.621 130.09 254.984C129.428 255.325 128.852 255.795 128.362 256.392C127.892 256.968 127.53 257.629 127.274 258.376C127.018 259.123 126.89 259.901 126.89 260.712C126.89 261.544 127.028 262.333 127.306 263.08C127.604 263.827 128.01 264.488 128.522 265.064C129.055 265.64 129.663 266.088 130.346 266.408C131.05 266.728 131.807 266.888 132.618 266.888C133.13 266.888 133.652 266.792 134.186 266.6C134.74 266.408 135.263 266.141 135.754 265.8C136.244 265.459 136.66 265.064 137.002 264.616C137.343 264.147 137.567 263.656 137.674 263.144ZM153.223 269.32C151.964 269.32 150.812 269.096 149.767 268.648C148.743 268.179 147.847 267.549 147.079 266.76C146.332 265.949 145.745 265.021 145.319 263.976C144.913 262.931 144.711 261.821 144.711 260.648C144.711 259.069 145.073 257.629 145.799 256.328C146.524 255.027 147.527 253.981 148.807 253.192C150.108 252.403 151.591 252.008 153.255 252.008C154.94 252.008 156.401 252.413 157.639 253.224C158.897 254.013 159.868 255.059 160.551 256.36C161.255 257.64 161.607 259.027 161.607 260.52C161.607 260.733 161.596 260.947 161.575 261.16C161.575 261.352 161.564 261.501 161.543 261.608H147.687C147.772 262.696 148.071 263.667 148.583 264.52C149.116 265.352 149.799 266.013 150.631 266.504C151.463 266.973 152.359 267.208 153.319 267.208C154.343 267.208 155.303 266.952 156.199 266.44C157.116 265.928 157.745 265.256 158.087 264.424L160.519 265.096C160.156 265.907 159.612 266.632 158.887 267.272C158.183 267.912 157.34 268.413 156.359 268.776C155.399 269.139 154.353 269.32 153.223 269.32ZM147.591 259.656H158.983C158.897 258.568 158.588 257.608 158.055 256.776C157.521 255.944 156.839 255.293 156.007 254.824C155.175 254.355 154.257 254.12 153.255 254.12C152.273 254.12 151.367 254.355 150.535 254.824C149.703 255.293 149.02 255.944 148.487 256.776C147.975 257.608 147.676 258.568 147.591 259.656ZM175.007 269V254.504H172.735V252.296H175.007V251.944C175.007 250.579 175.209 249.405 175.615 248.424C176.041 247.421 176.639 246.653 177.407 246.12C178.175 245.587 179.081 245.32 180.127 245.32C180.788 245.32 181.439 245.416 182.079 245.608C182.719 245.779 183.295 246.024 183.807 246.344L183.103 248.424C182.804 248.211 182.431 248.04 181.983 247.912C181.556 247.784 181.129 247.72 180.703 247.72C179.785 247.72 179.071 248.083 178.559 248.808C178.068 249.512 177.823 250.525 177.823 251.848V252.296H182.271V254.504H177.823V269H175.007ZM192.609 269.32C191.351 269.32 190.209 269.096 189.185 268.648C188.161 268.179 187.276 267.549 186.529 266.76C185.783 265.949 185.207 265.021 184.801 263.976C184.396 262.931 184.193 261.832 184.193 260.68C184.193 259.507 184.396 258.397 184.801 257.352C185.207 256.307 185.783 255.389 186.529 254.6C187.276 253.789 188.161 253.16 189.185 252.712C190.231 252.243 191.372 252.008 192.609 252.008C193.868 252.008 195.009 252.243 196.033 252.712C197.057 253.16 197.943 253.789 198.689 254.6C199.457 255.389 200.044 256.307 200.449 257.352C200.855 258.397 201.057 259.507 201.057 260.68C201.057 261.832 200.855 262.931 200.449 263.976C200.044 265.021 199.468 265.949 198.721 266.76C197.975 267.549 197.079 268.179 196.033 268.648C195.009 269.096 193.868 269.32 192.609 269.32ZM187.073 260.712C187.073 261.864 187.319 262.909 187.809 263.848C188.321 264.787 188.993 265.533 189.825 266.088C190.657 266.621 191.585 266.888 192.609 266.888C193.633 266.888 194.561 266.611 195.393 266.056C196.247 265.501 196.919 264.755 197.409 263.816C197.921 262.856 198.177 261.8 198.177 260.648C198.177 259.496 197.921 258.451 197.409 257.512C196.919 256.573 196.247 255.827 195.393 255.272C194.561 254.717 193.633 254.44 192.609 254.44C191.585 254.44 190.657 254.728 189.825 255.304C188.993 255.859 188.321 256.605 187.809 257.544C187.319 258.483 187.073 259.539 187.073 260.712ZM213.941 254.76C212.533 254.781 211.285 255.144 210.197 255.848C209.131 256.531 208.373 257.48 207.925 258.696V269H205.109V252.296H207.733V256.168C208.309 255.016 209.067 254.088 210.005 253.384C210.965 252.659 211.968 252.253 213.013 252.168C213.227 252.168 213.408 252.168 213.557 252.168C213.707 252.168 213.835 252.179 213.941 252.2V254.76ZM242.558 269H239.742V259.656C239.742 257.907 239.454 256.616 238.878 255.784C238.324 254.952 237.492 254.536 236.382 254.536C235.252 254.536 234.228 254.952 233.31 255.784C232.393 256.595 231.742 257.651 231.358 258.952V269H228.542V259.656C228.542 257.885 228.265 256.595 227.71 255.784C227.156 254.952 226.324 254.536 225.214 254.536C224.105 254.536 223.081 254.941 222.142 255.752C221.225 256.541 220.574 257.597 220.19 258.92V269H217.374V252.296H219.934V255.88C220.617 254.643 221.502 253.693 222.59 253.032C223.678 252.349 224.905 252.008 226.27 252.008C227.657 252.008 228.766 252.392 229.598 253.16C230.43 253.907 230.942 254.877 231.134 256.072C231.881 254.749 232.788 253.747 233.854 253.064C234.921 252.36 236.137 252.008 237.502 252.008C238.462 252.008 239.262 252.189 239.902 252.552C240.564 252.893 241.086 253.384 241.47 254.024C241.854 254.643 242.132 255.379 242.302 256.232C242.473 257.085 242.558 258.013 242.558 259.016V269ZM246.265 264.168C246.265 263.101 246.564 262.184 247.161 261.416C247.78 260.627 248.622 260.019 249.689 259.592C250.756 259.165 251.993 258.952 253.401 258.952C254.148 258.952 254.937 259.016 255.769 259.144C256.601 259.251 257.337 259.421 257.977 259.656V258.44C257.977 257.16 257.593 256.157 256.825 255.432C256.057 254.685 254.969 254.312 253.561 254.312C252.644 254.312 251.758 254.483 250.905 254.824C250.073 255.144 249.188 255.613 248.249 256.232L247.225 254.248C248.313 253.501 249.401 252.947 250.489 252.584C251.577 252.2 252.708 252.008 253.881 252.008C256.014 252.008 257.7 252.605 258.937 253.8C260.174 254.973 260.793 256.616 260.793 258.728V265.8C260.793 266.141 260.857 266.397 260.985 266.568C261.134 266.717 261.369 266.803 261.689 266.824V269C261.412 269.043 261.166 269.075 260.953 269.096C260.761 269.117 260.601 269.128 260.473 269.128C259.812 269.128 259.31 268.947 258.969 268.584C258.649 268.221 258.468 267.837 258.425 267.432L258.361 266.376C257.636 267.315 256.686 268.04 255.513 268.552C254.34 269.064 253.177 269.32 252.025 269.32C250.916 269.32 249.924 269.096 249.049 268.648C248.174 268.179 247.492 267.56 247.001 266.792C246.51 266.003 246.265 265.128 246.265 264.168ZM257.145 265.352C257.401 265.053 257.604 264.755 257.753 264.456C257.902 264.136 257.977 263.869 257.977 263.656V261.576C257.316 261.32 256.622 261.128 255.897 261C255.172 260.851 254.457 260.776 253.753 260.776C252.324 260.776 251.161 261.064 250.265 261.64C249.39 262.195 248.953 262.963 248.953 263.944C248.953 264.477 249.092 265 249.369 265.512C249.668 266.003 250.094 266.408 250.649 266.728C251.225 267.048 251.929 267.208 252.761 267.208C253.636 267.208 254.468 267.037 255.257 266.696C256.046 266.333 256.676 265.885 257.145 265.352ZM283.501 254.76C282.093 254.781 280.845 255.144 279.757 255.848C278.691 256.531 277.933 257.48 277.485 258.696V269H274.669V252.296H277.293V256.168C277.869 255.016 278.627 254.088 279.565 253.384C280.525 252.659 281.528 252.253 282.573 252.168C282.787 252.168 282.968 252.168 283.117 252.168C283.267 252.168 283.395 252.179 283.501 252.2V254.76ZM285.622 264.168C285.622 263.101 285.921 262.184 286.518 261.416C287.137 260.627 287.98 260.019 289.046 259.592C290.113 259.165 291.35 258.952 292.758 258.952C293.505 258.952 294.294 259.016 295.126 259.144C295.958 259.251 296.694 259.421 297.334 259.656V258.44C297.334 257.16 296.95 256.157 296.182 255.432C295.414 254.685 294.326 254.312 292.918 254.312C292.001 254.312 291.116 254.483 290.262 254.824C289.43 255.144 288.545 255.613 287.606 256.232L286.582 254.248C287.67 253.501 288.758 252.947 289.846 252.584C290.934 252.2 292.065 252.008 293.238 252.008C295.372 252.008 297.057 252.605 298.294 253.8C299.532 254.973 300.15 256.616 300.15 258.728V265.8C300.15 266.141 300.214 266.397 300.342 266.568C300.492 266.717 300.726 266.803 301.046 266.824V269C300.769 269.043 300.524 269.075 300.31 269.096C300.118 269.117 299.958 269.128 299.83 269.128C299.169 269.128 298.668 268.947 298.326 268.584C298.006 268.221 297.825 267.837 297.782 267.432L297.718 266.376C296.993 267.315 296.044 268.04 294.87 268.552C293.697 269.064 292.534 269.32 291.382 269.32C290.273 269.32 289.281 269.096 288.406 268.648C287.532 268.179 286.849 267.56 286.358 266.792C285.868 266.003 285.622 265.128 285.622 264.168ZM296.502 265.352C296.758 265.053 296.961 264.755 297.11 264.456C297.26 264.136 297.334 263.869 297.334 263.656V261.576C296.673 261.32 295.98 261.128 295.254 261C294.529 260.851 293.814 260.776 293.11 260.776C291.681 260.776 290.518 261.064 289.622 261.64C288.748 262.195 288.31 262.963 288.31 263.944C288.31 264.477 288.449 265 288.726 265.512C289.025 266.003 289.452 266.408 290.006 266.728C290.582 267.048 291.286 267.208 292.118 267.208C292.993 267.208 293.825 267.037 294.614 266.696C295.404 266.333 296.033 265.885 296.502 265.352ZM294.166 249.512L292.31 248.872L294.166 245.64H296.982L294.166 249.512ZM314.285 269.32C312.92 269.32 311.704 268.979 310.637 268.296C309.571 267.613 308.728 266.749 308.109 265.704V275.816H305.293V252.296H307.789V255.432C308.451 254.408 309.315 253.587 310.381 252.968C311.448 252.328 312.611 252.008 313.869 252.008C315.021 252.008 316.077 252.243 317.037 252.712C317.997 253.181 318.829 253.821 319.533 254.632C320.237 255.443 320.781 256.371 321.165 257.416C321.571 258.44 321.773 259.517 321.773 260.648C321.773 262.227 321.453 263.677 320.813 265C320.195 266.323 319.32 267.379 318.189 268.168C317.059 268.936 315.757 269.32 314.285 269.32ZM313.421 266.888C314.253 266.888 315 266.717 315.661 266.376C316.344 266.013 316.92 265.544 317.389 264.968C317.88 264.371 318.253 263.699 318.509 262.952C318.765 262.205 318.893 261.437 318.893 260.648C318.893 259.816 318.744 259.027 318.445 258.28C318.168 257.533 317.763 256.872 317.229 256.296C316.717 255.72 316.109 255.272 315.405 254.952C314.723 254.611 313.976 254.44 313.165 254.44C312.653 254.44 312.12 254.536 311.565 254.728C311.032 254.92 310.52 255.197 310.029 255.56C309.539 255.901 309.123 256.296 308.781 256.744C308.44 257.192 308.216 257.672 308.109 258.184V262.952C308.429 263.677 308.856 264.339 309.389 264.936C309.923 265.533 310.541 266.013 311.245 266.376C311.949 266.717 312.675 266.888 313.421 266.888ZM325.871 269V252.296H328.687V269H325.871ZM325.871 249.16V245.64H328.687V249.16H325.871ZM332.798 260.68C332.798 259.101 333.118 257.661 333.758 256.36C334.419 255.037 335.315 253.981 336.446 253.192C337.598 252.403 338.91 252.008 340.382 252.008C341.726 252.008 342.931 252.36 343.998 253.064C345.064 253.768 345.896 254.621 346.494 255.624V245.64H349.31V265.8C349.31 266.141 349.374 266.397 349.502 266.568C349.651 266.717 349.886 266.803 350.206 266.824V269C349.672 269.085 349.256 269.128 348.958 269.128C348.403 269.128 347.912 268.936 347.486 268.552C347.08 268.168 346.878 267.741 346.878 267.272V265.864C346.216 266.931 345.331 267.773 344.222 268.392C343.112 269.011 341.96 269.32 340.766 269.32C339.614 269.32 338.547 269.096 337.566 268.648C336.606 268.179 335.763 267.539 335.038 266.728C334.334 265.917 333.779 265 333.374 263.976C332.99 262.931 332.798 261.832 332.798 260.68ZM346.494 263.144V258.344C346.238 257.619 345.822 256.968 345.246 256.392C344.67 255.795 344.019 255.325 343.294 254.984C342.59 254.621 341.886 254.44 341.182 254.44C340.35 254.44 339.592 254.621 338.91 254.984C338.248 255.325 337.672 255.795 337.182 256.392C336.712 256.968 336.35 257.629 336.094 258.376C335.838 259.123 335.71 259.901 335.71 260.712C335.71 261.544 335.848 262.333 336.126 263.08C336.424 263.827 336.83 264.488 337.342 265.064C337.875 265.64 338.483 266.088 339.166 266.408C339.87 266.728 340.627 266.888 341.438 266.888C341.95 266.888 342.472 266.792 343.006 266.6C343.56 266.408 344.083 266.141 344.574 265.8C345.064 265.459 345.48 265.064 345.822 264.616C346.163 264.147 346.387 263.656 346.494 263.144ZM353.339 264.168C353.339 263.101 353.637 262.184 354.235 261.416C354.853 260.627 355.696 260.019 356.763 259.592C357.829 259.165 359.067 258.952 360.475 258.952C361.221 258.952 362.011 259.016 362.843 259.144C363.675 259.251 364.411 259.421 365.051 259.656V258.44C365.051 257.16 364.667 256.157 363.899 255.432C363.131 254.685 362.043 254.312 360.635 254.312C359.717 254.312 358.832 254.483 357.979 254.824C357.147 255.144 356.261 255.613 355.323 256.232L354.299 254.248C355.387 253.501 356.475 252.947 357.563 252.584C358.651 252.2 359.781 252.008 360.955 252.008C363.088 252.008 364.773 252.605 366.011 253.8C367.248 254.973 367.867 256.616 367.867 258.728V265.8C367.867 266.141 367.931 266.397 368.059 266.568C368.208 266.717 368.443 266.803 368.763 266.824V269C368.485 269.043 368.24 269.075 368.027 269.096C367.835 269.117 367.675 269.128 367.547 269.128C366.885 269.128 366.384 268.947 366.043 268.584C365.723 268.221 365.541 267.837 365.499 267.432L365.435 266.376C364.709 267.315 363.76 268.04 362.587 268.552C361.413 269.064 360.251 269.32 359.099 269.32C357.989 269.32 356.997 269.096 356.123 268.648C355.248 268.179 354.565 267.56 354.075 266.792C353.584 266.003 353.339 265.128 353.339 264.168ZM364.219 265.352C364.475 265.053 364.677 264.755 364.827 264.456C364.976 264.136 365.051 263.869 365.051 263.656V261.576C364.389 261.32 363.696 261.128 362.971 261C362.245 260.851 361.531 260.776 360.827 260.776C359.397 260.776 358.235 261.064 357.339 261.64C356.464 262.195 356.027 262.963 356.027 263.944C356.027 264.477 356.165 265 356.443 265.512C356.741 266.003 357.168 266.408 357.723 266.728C358.299 267.048 359.003 267.208 359.835 267.208C360.709 267.208 361.541 267.037 362.331 266.696C363.12 266.333 363.749 265.885 364.219 265.352ZM372.785 269V265.416H375.153V269H372.785Z" fill="black"/>
<defs>
<clipPath id="clip0_17_10">
<rect width="364" height="120" fill="white" transform="translate(68 15)"/>
</clipPath>
</defs>
</svg>
