<svg width="182" height="60" viewBox="0 0 182 60" fill="none" xmlns="http://www.w3.org/2000/svg">
<g clip-path="url(#clip0_2_7)">
<rect width="182" height="60" fill="white"/>
<path d="M19.656 22.64C17.544 22.672 15.672 23.216 14.04 24.272C12.44 25.296 11.304 26.72 10.632 28.544V44H6.408V18.944H10.344V24.752C11.208 23.024 12.344 21.632 13.752 20.576C15.192 19.488 16.696 18.88 18.264 18.752C18.584 18.752 18.856 18.752 19.08 18.752C19.304 18.752 19.496 18.768 19.656 18.8V22.64Z" fill="black"/>
<path d="M34.496 44.48C32.608 44.48 30.88 44.144 29.312 43.472C27.776 42.768 26.432 41.824 25.28 40.64C24.16 39.424 23.28 38.032 22.64 36.464C22.032 34.896 21.728 33.232 21.728 31.472C21.728 29.104 22.272 26.944 23.36 24.992C24.448 23.04 25.952 21.472 27.872 20.288C29.824 19.104 32.048 18.512 34.544 18.512C37.072 18.512 39.264 19.12 41.12 20.336C43.008 21.52 44.464 23.088 45.488 25.04C46.544 26.96 47.072 29.04 47.072 31.28C47.072 31.6 47.056 31.92 47.024 32.24C47.024 32.528 47.008 32.752 46.976 32.912H26.192C26.32 34.544 26.768 36 27.536 37.28C28.336 38.528 29.36 39.52 30.608 40.256C31.856 40.96 33.2 41.312 34.64 41.312C36.176 41.312 37.616 40.928 38.96 40.16C40.336 39.392 41.28 38.384 41.792 37.136L45.44 38.144C44.896 39.36 44.08 40.448 42.992 41.408C41.936 42.368 40.672 43.12 39.2 43.664C37.76 44.208 36.192 44.48 34.496 44.48ZM26.048 29.984H43.136C43.008 28.352 42.544 26.912 41.744 25.664C40.944 24.416 39.92 23.44 38.672 22.736C37.424 22.032 36.048 21.68 34.544 21.68C33.072 21.68 31.712 22.032 30.464 22.736C29.216 23.44 28.192 24.416 27.392 25.664C26.624 26.912 26.176 28.352 26.048 29.984Z" fill="black"/>
<path d="M58.608 44L48.768 18.944H53.184L61.056 39.968L68.928 18.944H73.056L63.216 44H58.608Z" fill="black"/>
<path d="M77.408 44V18.944H81.632V44H77.408ZM77.408 14.24V8.96H81.632V14.24H77.408Z" fill="black"/>
<path d="M97 44.48C94.92 44.48 92.968 44.144 91.144 43.472C89.32 42.768 87.752 41.728 86.44 40.352L88.072 37.376C89.512 38.72 90.952 39.68 92.392 40.256C93.832 40.832 95.304 41.12 96.808 41.12C98.536 41.12 99.944 40.8 101.032 40.16C102.12 39.488 102.664 38.512 102.664 37.232C102.664 36.304 102.376 35.616 101.8 35.168C101.256 34.72 100.472 34.352 99.448 34.064C98.424 33.744 97.208 33.392 95.8 33.008C94.072 32.496 92.616 31.952 91.432 31.376C90.248 30.8 89.352 30.08 88.744 29.216C88.136 28.352 87.832 27.264 87.832 25.952C87.832 24.352 88.248 23.008 89.08 21.92C89.912 20.8 91.048 19.952 92.488 19.376C93.96 18.8 95.624 18.512 97.48 18.512C99.336 18.512 101.016 18.8 102.52 19.376C104.024 19.952 105.32 20.8 106.408 21.92L104.488 24.848C103.496 23.824 102.408 23.072 101.224 22.592C100.04 22.08 98.712 21.824 97.24 21.824C96.376 21.824 95.528 21.936 94.696 22.16C93.864 22.352 93.176 22.72 92.632 23.264C92.088 23.776 91.816 24.512 91.816 25.472C91.816 26.272 92.024 26.912 92.44 27.392C92.888 27.84 93.528 28.224 94.36 28.544C95.224 28.864 96.264 29.216 97.48 29.6C99.368 30.144 101 30.688 102.376 31.232C103.784 31.776 104.872 32.48 105.64 33.344C106.408 34.208 106.792 35.408 106.792 36.944C106.792 39.312 105.896 41.168 104.104 42.512C102.312 43.824 99.944 44.48 97 44.48Z" fill="black"/>
<path d="M109.44 36.752C109.44 35.152 109.888 33.776 110.784 32.624C111.712 31.44 112.976 30.528 114.576 29.888C116.176 29.248 118.032 28.928 120.144 28.928C121.264 28.928 122.448 29.024 123.696 29.216C124.944 29.376 126.048 29.632 127.008 29.984V28.16C127.008 26.24 126.432 24.736 125.28 23.648C124.128 22.528 122.496 21.968 120.384 21.968C119.008 21.968 117.68 22.224 116.4 22.736C115.152 23.216 113.824 23.92 112.416 24.848L110.88 21.872C112.512 20.752 114.144 19.92 115.776 19.376C117.408 18.8 119.104 18.512 120.864 18.512C124.064 18.512 126.592 19.408 128.448 21.2C130.304 22.96 131.232 25.424 131.232 28.592V39.2C131.232 39.712 131.328 40.096 131.52 40.352C131.744 40.576 132.096 40.704 132.576 40.736V44C132.16 44.064 131.792 44.112 131.472 44.144C131.184 44.176 130.944 44.192 130.752 44.192C129.76 44.192 129.008 43.92 128.496 43.376C128.016 42.832 127.744 42.256 127.68 41.648L127.584 40.064C126.496 41.472 125.072 42.56 123.312 43.328C121.552 44.096 119.808 44.48 118.08 44.48C116.416 44.48 114.928 44.144 113.616 43.472C112.304 42.768 111.28 41.84 110.544 40.688C109.808 39.504 109.44 38.192 109.44 36.752ZM125.76 38.528C126.144 38.08 126.448 37.632 126.672 37.184C126.896 36.704 127.008 36.304 127.008 35.984V32.864C126.016 32.48 124.976 32.192 123.888 32C122.8 31.776 121.728 31.664 120.672 31.664C118.528 31.664 116.784 32.096 115.44 32.96C114.128 33.792 113.472 34.944 113.472 36.416C113.472 37.216 113.68 38 114.096 38.768C114.544 39.504 115.184 40.112 116.016 40.592C116.88 41.072 117.936 41.312 119.184 41.312C120.496 41.312 121.744 41.056 122.928 40.544C124.112 40 125.056 39.328 125.76 38.528Z" fill="black"/>
<path d="M147.816 9.92H154.536L167.064 44H160.248L157.08 35.504H145.176L142.056 44H135.24L147.816 9.92ZM155.88 30.848L151.176 16.784L146.28 30.848H155.88Z" fill="black"/>
<path d="M169.928 44V18.848H176.36V44H169.928ZM169.928 15.344V8.96H176.36V15.344H169.928Z" fill="black"/>
</g>
<defs>
<clipPath id="clip0_2_7">
<rect width="182" height="60" fill="white"/>
</clipPath>
</defs>
</svg>
